<?xml version="1.0" standalone="no"?><!DOCTYPE svg PUBLIC "-//W3C//DTD SVG 1.1//EN" "http://www.w3.org/Graphics/SVG/1.1/DTD/svg11.dtd" ><svg xmlns="http://www.w3.org/2000/svg"><metadata></metadata><defs><font id="PingFang SC Bold; 10.11d9e1; 2015-05-20" horiz-adv-x="1000"><font-face font-family="PingFang SC Bold" font-weight="400" font-stretch="normal" units-per-em="1000" panose-1="2 11 6 0 0 0 0 0 0 0" ascent="1060" descent="-340" x-height="0" bbox="0 -188 971 833" underline-thickness="84" underline-position="-100" unicode-range="U+0020-ff1a" /><missing-glyph horiz-adv-x="1000"  /><glyph glyph-name="" unicode=" " d="" /><glyph glyph-name="" unicode="&amp;" d="M310 645 q-41 0 -59 -19 q-20 -17 -20 -53 q0 -26 29 -67 q14 -20 37 -46 q1 1 2 1 q91 52 91 108 q0 35 -21 54 q-21 22 -59 22 ZM210 411 q-43 46 -61 77 q-26 40 -26 82 q0 75 57 117 q50 41 133 41 q78 0 128 -37 q57 -42 57 -115 q0 -83 -84 -143 l-59 -35 l149 -158 q28 77 35 178 l108 0 q-6 -156 -65 -261 l148 -157 l-137 0 l-71 76 q-88 -90 -225 -90 q-112 0 -180 50 q-77 56 -77 163 q0 99 91 166 q4 4 79 46 ZM293 82 q97 0 159 70 l-184 197 l-12 -7 q-47 -29 -74 -62 q-33 -36 -33 -83 q0 -52 43 -85 q39 -30 101 -30 Z" /><glyph glyph-name="" unicode="+" d="M259 511 l88 0 l0 -208 l208 0 l0 -88 l-208 0 l0 -209 l-88 0 l0 209 l-209 0 l0 88 l209 0 l0 208 Z" /><glyph glyph-name="" unicode="," d="M130 142 q88 0 88 -116 q0 -143 -131 -214 l-33 53 q86 53 95 137 q-12 -2 -19 -2 q-30 0 -52 20 q-21 21 -21 50 q0 34 21 53 q20 19 52 19 Z" /><glyph glyph-name="" unicode="0" d="M300 728 q126 0 195 -106 q63 -99 63 -265 q0 -166 -63 -265 q-70 -106 -195 -106 q-125 0 -195 106 q-63 99 -63 265 q0 168 63 265 q69 106 195 106 ZM300 636 q-88 0 -124 -97 q-26 -64 -26 -182 q0 -117 26 -182 q36 -97 124 -97 q88 0 124 97 q26 69 26 182 q0 115 -26 182 q-36 97 -124 97 Z" /><glyph glyph-name="" unicode="1" d="M375 714 l0 -714 l-109 0 l0 583 q-66 -62 -164 -90 l0 108 q48 12 102 42 q54 34 88 71 l83 0 Z" /><glyph glyph-name="" unicode="2" d="M311 728 q104 0 169 -59 q65 -60 65 -154 q0 -91 -70 -169 q-42 -43 -148 -115 q-115 -76 -138 -135 l357 0 l0 -96 l-492 0 q0 107 71 187 q37 44 161 130 q73 52 102 82 q49 55 49 117 q0 60 -33 90 q-33 30 -97 30 q-68 0 -102 -46 q-35 -44 -38 -131 l-109 0 q2 120 69 192 q68 77 184 77 Z" /><glyph glyph-name="" unicode="3" d="M307 728 q108 0 173 -52 q64 -53 64 -144 q0 -118 -118 -157 q62 -19 96 -59 q36 -40 36 -104 q0 -99 -68 -162 q-73 -64 -187 -64 q-109 0 -176 56 q-75 63 -84 183 l110 0 q3 -73 47 -111 q39 -36 102 -36 q68 0 111 40 q37 37 37 89 q0 63 -39 93 q-36 30 -107 30 l-52 0 l0 82 l51 0 q65 0 99 29 q34 29 34 83 q0 53 -31 82 q-32 29 -97 29 q-65 0 -101 -33 q-37 -34 -43 -99 l-107 0 q9 106 79 166 q65 59 171 59 Z" /><glyph glyph-name="" unicode="5" d="M95 714 l430 0 l0 -96 l-342 0 l-21 -206 l3 0 q33 34 76 49 q38 16 88 16 q101 0 164 -66 q64 -67 64 -181 q0 -110 -82 -181 q-76 -63 -183 -63 q-95 0 -165 53 q-76 57 -84 157 l107 0 q6 -61 47 -91 q36 -27 96 -27 q65 0 111 41 q45 42 45 110 q0 75 -39 117 q-39 42 -110 42 q-49 0 -83 -17 q-38 -17 -59 -57 l-102 0 l39 400 Z" /><glyph glyph-name="" unicode="a" d="M275 714 l124 0 l275 -714 l-117 0 l-67 184 l-307 0 l-67 -184 l-116 0 l275 714 ZM216 274 l241 0 l-118 323 l-4 0 l-119 -323 Z" /><glyph glyph-name="" unicode="b" d="M70 714 l326 0 q105 0 164 -50 q57 -48 57 -130 q0 -60 -30 -102 q-31 -40 -83 -59 q71 -14 107 -57 q36 -43 36 -116 q0 -107 -74 -158 q-63 -42 -177 -42 l-326 0 l0 714 ZM179 624 l0 -213 l188 0 q74 0 108 26 q33 27 33 84 q0 54 -33 78 q-32 25 -106 25 l-190 0 ZM179 322 l0 -232 l202 0 q67 0 108 22 q49 29 49 90 q0 63 -38 92 q-37 28 -116 28 l-205 0 Z" /><glyph glyph-name="" unicode="c" d="M380 728 q126 0 206 -65 q78 -63 95 -172 l-106 0 q-18 73 -69 107 q-50 34 -128 34 q-116 0 -174 -79 q-55 -71 -55 -197 q0 -128 54 -199 q57 -75 177 -75 q79 0 130 39 q54 42 75 126 l106 0 q-24 -125 -112 -195 q-82 -66 -198 -66 q-175 0 -264 112 q-77 95 -77 258 q0 160 80 259 q89 113 260 113 Z" /><glyph glyph-name="" unicode="d" d="M70 714 l260 0 q172 0 262 -97 q84 -90 84 -260 q0 -167 -86 -261 q-90 -96 -262 -96 l-258 0 l0 714 ZM179 621 l0 -528 l129 0 q136 0 199 65 q62 65 62 199 q0 136 -61 200 q-63 64 -198 64 l-131 0 Z" /><glyph glyph-name="" unicode="e" d="M70 714 l513 0 l0 -93 l-404 0 l0 -208 l380 0 l0 -93 l-380 0 l0 -227 l421 0 l0 -93 l-530 0 l0 714 Z" /><glyph glyph-name="" unicode="f" d="M70 714 l485 0 l0 -93 l-376 0 l0 -208 l355 0 l0 -93 l-355 0 l0 -320 l-109 0 l0 714 Z" /><glyph glyph-name="" unicode="g" d="M379 728 q138 0 216 -62 q77 -60 96 -179 l-110 0 q-15 72 -66 108 q-50 37 -136 37 q-104 0 -165 -71 q-65 -74 -65 -207 q0 -130 59 -198 q63 -75 197 -75 q49 0 99 13 q42 11 80 35 l0 155 l-197 0 l0 93 l306 0 l0 -300 q-54 -43 -129 -67 q-78 -24 -171 -24 q-170 0 -265 108 q-88 100 -88 260 q0 161 88 264 q92 110 251 110 Z" /><glyph glyph-name="" unicode="h" d="M70 714 l109 0 l0 -301 l374 0 l0 301 l109 0 l0 -714 l-109 0 l0 320 l-374 0 l0 -320 l-109 0 l0 714 Z" /><glyph glyph-name="" unicode="i" d="M72 714 l108 0 l0 -714 l-108 0 l0 714 Z" /><glyph glyph-name="" unicode="j" d="M354 714 l109 0 l0 -484 q0 -119 -50 -180 q-58 -64 -180 -64 q-107 0 -161 59 q-57 60 -57 164 l0 24 l109 0 l0 -23 q0 -128 111 -128 q62 0 91 37 q28 37 28 115 l0 480 Z" /><glyph glyph-name="" unicode="l" d="M70 714 l108 0 l0 -621 l393 0 l0 -93 l-501 0 l0 714 Z" /><glyph glyph-name="" unicode="m" d="M70 714 l129 0 l249 -572 l3 0 l248 572 l129 0 l0 -714 l-109 0 l0 510 l-4 0 l-219 -510 l-94 0 l-219 510 l-4 0 l0 -510 l-109 0 l0 714 Z" /><glyph glyph-name="" unicode="n" d="M70 714 l110 0 l365 -531 l4 0 l0 531 l109 0 l0 -714 l-106 0 l-369 537 l-4 0 l0 -537 l-109 0 l0 714 Z" /><glyph glyph-name="" unicode="o" d="M386 728 q163 0 257 -106 q90 -100 90 -266 q0 -163 -90 -265 q-94 -105 -257 -105 q-163 0 -257 106 q-89 101 -89 264 q0 164 89 265 q92 107 257 107 ZM386 632 q-115 0 -177 -77 q-60 -73 -60 -199 q0 -124 60 -198 q64 -76 177 -76 q114 0 176 74 q61 73 61 200 q0 127 -61 202 q-61 74 -176 74 Z" /><glyph glyph-name="" unicode="p" d="M70 714 l296 0 q255 0 255 -217 q0 -219 -257 -219 l-185 0 l0 -278 l-109 0 l0 714 ZM179 621 l0 -250 l178 0 q81 0 118 30 q37 31 37 96 q0 67 -38 94 q-37 30 -117 30 l-178 0 Z" /><glyph glyph-name="" unicode="q" d="M386 728 q163 0 257 -106 q90 -100 90 -266 q0 -160 -87 -262 q56 -75 79 -109 l-70 -62 q-47 68 -79 111 q-79 -48 -190 -48 q-163 0 -257 106 q-89 101 -89 264 q0 164 89 265 q92 107 257 107 ZM386 632 q-115 0 -177 -77 q-60 -73 -60 -199 q0 -124 60 -198 q64 -76 177 -76 q75 0 128 32 q-51 64 -107 123 l63 62 q45 -47 108 -121 q45 69 45 178 q0 127 -61 202 q-61 74 -176 74 Z" /><glyph glyph-name="" unicode="r" d="M70 714 l316 0 q110 0 172 -49 q66 -54 66 -155 q0 -56 -30 -100 q-34 -48 -93 -63 l0 -2 q95 -21 107 -126 l12 -114 q6 -66 42 -105 l-118 0 q-25 32 -31 94 l-9 89 q-6 58 -38 86 q-32 26 -94 26 l-193 0 l0 -295 l-109 0 l0 714 ZM179 621 l0 -233 l193 0 q71 0 108 31 q35 30 35 87 q0 59 -34 87 q-35 28 -110 28 l-192 0 Z" /><glyph glyph-name="" unicode="s" d="M320 728 q126 0 195 -53 q75 -55 85 -172 l-108 0 q-15 71 -56 100 q-41 31 -122 31 q-70 0 -108 -21 q-46 -24 -46 -78 q0 -48 53 -76 q26 -15 124 -44 q148 -46 187 -70 q92 -56 92 -154 q0 -95 -75 -151 q-75 -54 -210 -54 q-129 0 -204 52 q-88 63 -97 198 l108 0 q12 -85 60 -121 q44 -33 133 -33 q79 0 129 28 q48 27 48 75 q0 59 -68 94 q-25 12 -142 48 q-134 43 -164 59 q-82 49 -82 143 q0 94 79 148 q75 51 189 51 Z" /><glyph glyph-name="" unicode="t" d="M15 714 l585 0 l0 -93 l-238 0 l0 -621 l-108 0 l0 621 l-239 0 l0 93 Z" /><glyph glyph-name="" unicode="u" d="M70 714 l109 0 l0 -444 q0 -97 44 -142 q45 -47 142 -47 q96 0 141 47 q44 47 44 142 l0 444 l109 0 l0 -442 q0 -139 -77 -213 q-78 -73 -217 -73 q-142 0 -217 72 q-78 75 -78 214 l0 442 Z" /><glyph glyph-name="" unicode="v" d="M5 714 l118 0 l203 -592 l3 0 l202 592 l118 0 l-256 -714 l-132 0 l-256 714 Z" /><glyph glyph-name="" unicode="x" d="M22 714 l133 0 l174 -258 l174 258 l133 0 l-242 -345 l259 -369 l-133 0 l-191 283 l-191 -283 l-133 0 l257 369 l-240 345 Z" /><glyph glyph-name="" unicode="y" d="M5 714 l131 0 l206 -327 l206 327 l131 0 l-283 -429 l0 -285 l-108 0 l0 285 l-283 429 Z" /><glyph glyph-name="" unicode="z" d="M55 714 l531 0 l0 -87 l-419 -534 l443 0 l0 -93 l-585 0 l0 86 l420 535 l-390 0 l0 93 Z" /><glyph glyph-name="" unicode="d" d="M432 728 l106 0 l0 -728 l-99 0 l0 62 q-55 -76 -160 -76 q-114 0 -179 81 q-60 75 -60 194 q0 115 59 189 q63 81 175 81 q95 0 158 -91 l0 288 ZM298 445 q-79 0 -116 -53 q-33 -45 -33 -131 q0 -86 31 -133 q36 -56 115 -56 q67 0 107 55 q33 50 33 127 l0 9 q0 83 -40 135 q-38 47 -97 47 Z" /><glyph glyph-name="" unicode="e" d="M279 531 q128 0 193 -86 q61 -79 62 -216 l-392 0 q6 -77 41 -116 q37 -40 99 -40 q55 0 90 26 q25 19 47 67 l106 0 q-19 -74 -71 -121 q-68 -59 -171 -59 q-115 0 -181 71 q-72 75 -72 202 q0 116 68 193 q66 79 181 79 ZM282 444 q-60 0 -95 -35 q-34 -36 -43 -100 l279 0 q-15 135 -141 135 Z" /><glyph glyph-name="" unicode="i" d="M135 724 q33 0 53 -20 q21 -19 21 -51 q0 -30 -22 -52 q-22 -20 -52 -20 q-30 0 -52 20 q-21 21 -21 52 q0 32 21 51 q20 20 52 20 ZM82 517 l106 0 l0 -517 l-106 0 l0 517 Z" /><glyph glyph-name="" unicode="l" d="M72 728 l106 0 l0 -728 l-106 0 l0 728 Z" /><glyph glyph-name="" unicode="o" d="M298 531 q118 0 188 -78 q70 -78 70 -195 q0 -118 -69 -193 q-73 -79 -189 -79 q-116 0 -189 79 q-69 75 -69 193 q0 119 70 195 q71 78 188 78 ZM298 444 q-74 0 -114 -58 q-35 -48 -35 -128 q0 -79 35 -127 q41 -58 114 -58 q72 0 115 58 q36 51 36 127 q0 79 -36 128 q-42 58 -115 58 Z" /><glyph glyph-name="" unicode="r" d="M300 531 q41 0 67 -13 l0 -106 q-36 11 -75 11 q-48 0 -86 -39 q-40 -41 -40 -110 l0 -274 l-106 0 l0 517 l106 0 l0 -78 q19 41 50 63 q35 29 84 29 Z" /><glyph glyph-name="" unicode="v" d="M5 517 l115 0 l130 -385 l130 385 l115 0 l-192 -517 l-106 0 l-192 517 Z" /><glyph glyph-name="" unicode="w" d="M5 517 l117 0 l109 -391 l106 391 l98 0 l106 -391 l109 391 l117 0 l-175 -517 l-98 0 l-108 387 l-108 -387 l-98 0 l-175 517 Z" /><glyph glyph-name="" unicode="&#x3002;" d="M250 150 q57 0 97 -39 q41 -38 41 -94 q0 -56 -41 -95 q-41 -38 -97 -38 q-57 0 -97 37 q-41 38 -41 96 q0 58 41 95 q38 38 97 38 ZM250 84 q-29 0 -49 -20 q-20 -17 -20 -47 q0 -28 20 -48 q22 -19 49 -19 q27 0 49 19 q20 22 20 48 q0 29 -20 47 q-20 20 -49 20 Z" /><glyph glyph-name="" unicode="&#xff0c;" d="M186 142 q88 0 88 -116 q0 -143 -132 -214 l-33 53 q87 54 95 137 q-10 -2 -18 -2 q-30 0 -52 20 q-21 21 -21 50 q0 34 20 53 q20 19 53 19 Z" /><glyph glyph-name="" unicode="&#xff1a;" d="M250 619 q33 0 53 -20 q21 -19 21 -51 q0 -31 -21 -52 q-23 -20 -53 -20 q-30 0 -51 21 q-22 21 -22 51 q0 32 22 51 q20 20 51 20 ZM250 253 q33 0 53 -20 q21 -19 21 -51 q0 -31 -21 -52 q-23 -20 -53 -20 q-30 0 -51 21 q-22 21 -22 51 q0 32 22 51 q20 20 51 20 Z" /><glyph glyph-name="" unicode="&#x4e0e;" d="M326 611 l-15 -136 l553 0 q0 -434 -48 -503 q-48 -66 -205 -66 q-38 0 -130 4 l-25 87 q102 -8 136 -8 q126 0 150 57 q27 59 27 340 l-565 0 l48 438 l96 -8 l-12 -114 l557 0 l0 -91 l-567 0 ZM55 243 l629 0 l0 -91 l-629 0 l0 91 Z" /><glyph glyph-name="" unicode="&#x4e16;" d="M46 590 l120 0 l0 218 l97 0 l0 -218 l180 0 l0 227 l93 0 l0 -227 l181 0 l0 227 l93 0 l0 -227 l143 0 l0 -91 l-143 0 l0 -315 l-367 0 l0 315 l-180 0 l0 -468 l656 0 l0 -97 l-753 0 l0 565 l-120 0 l0 91 ZM536 499 l0 -223 l181 0 l0 223 l-181 0 Z" /><glyph glyph-name="" unicode="&#x4e1c;" d="M72 707 l246 0 q20 46 49 122 l95 -21 q-34 -85 -41 -101 l498 0 l0 -92 l-541 0 q-61 -124 -139 -225 l234 0 l0 137 l95 0 l0 -137 l309 0 l0 -89 l-309 0 l0 -301 q0 -101 -105 -101 l-104 0 l-21 93 q48 -6 92 -6 q43 0 43 37 l0 278 l-334 0 l-22 85 q85 91 157 229 l-202 0 l0 92 ZM344 178 q-96 -132 -238 -233 l-61 79 q138 90 233 212 l66 -58 ZM732 239 q138 -119 223 -227 l-69 -69 q-78 109 -217 235 l63 61 Z" /><glyph glyph-name="" unicode="&#x4e2d;" d="M451 824 l98 0 l0 -173 l356 0 l0 -483 l-95 0 l0 57 l-261 0 l0 -335 l-98 0 l0 335 l-260 0 l0 -57 l-95 0 l0 483 l355 0 l0 173 ZM191 318 l260 0 l0 240 l-260 0 l0 -240 ZM549 318 l261 0 l0 240 l-261 0 l0 -240 Z" /><glyph glyph-name="" unicode="&#x4e8e;" d="M118 787 l757 0 l0 -93 l-319 0 l0 -244 l389 0 l0 -95 l-389 0 l0 -341 q0 -106 -110 -106 l-159 0 l-20 92 q85 -5 146 -5 q48 0 48 43 l0 317 l-406 0 l0 95 l406 0 l0 244 l-343 0 l0 93 Z" /><glyph glyph-name="" unicode="&#x4ea7;" d="M513 832 q16 -37 41 -108 l347 0 l0 -90 l-168 0 q-15 -69 -42 -131 l231 0 l0 -92 l-710 0 l0 -135 q-6 -236 -107 -377 l-73 64 q81 114 84 313 l0 227 l202 0 l-35 131 l-178 0 l0 90 l352 0 q-19 48 -44 92 l100 16 ZM412 503 l188 0 q27 62 42 131 l-266 0 l36 -131 Z" /><glyph glyph-name="" unicode="&#x4eec;" d="M723 -95 l-24 89 l95 -2 q39 0 39 50 l0 630 l-232 0 l0 91 l326 0 l0 -747 q0 -111 -113 -111 l-91 0 ZM474 820 q70 -89 104 -151 l-75 -52 q-34 66 -101 158 l72 45 ZM349 788 q-40 -120 -101 -223 l0 -670 l-94 0 l0 532 q-43 -54 -93 -105 l-30 97 q156 176 231 409 l87 -40 ZM349 650 l94 0 l0 -752 l-94 0 l0 752 Z" /><glyph glyph-name="" unicode="&#x4efb;" d="M917 711 q-100 -34 -243 -53 l0 -254 l283 0 l0 -93 l-283 0 l0 -284 l233 0 l0 -93 l-559 0 l0 93 l232 0 l0 284 l-281 0 l0 93 l281 0 l0 245 q-105 -7 -192 -7 l-31 88 q301 0 513 61 l47 -80 ZM348 779 q-40 -117 -100 -218 l0 -666 l-94 0 l0 532 q-41 -49 -93 -103 l-31 101 q155 168 229 395 l89 -41 Z" /><glyph glyph-name="" unicode="&#x4f4d;" d="M347 787 q-39 -117 -97 -218 l0 -674 l-94 0 l0 535 q-50 -62 -94 -107 l-31 101 q154 175 227 404 l89 -41 ZM328 667 l258 0 q-21 73 -46 134 l100 16 q23 -72 41 -150 l255 0 l0 -91 l-608 0 l0 91 ZM311 31 l340 0 q74 201 128 492 l91 -23 q-49 -260 -122 -469 l214 0 l0 -93 l-651 0 l0 93 ZM467 514 q54 -181 101 -435 l-88 -23 q-38 218 -101 430 l88 28 Z" /><glyph glyph-name="" unicode="&#x4f55;" d="M338 765 l620 0 l0 -92 l-71 0 l0 -668 q0 -105 -103 -105 l-169 0 l-21 93 q83 -6 157 -6 q40 0 40 42 l0 644 l-453 0 l0 92 ZM355 544 l334 0 l0 -388 l-334 0 l0 388 ZM597 242 l0 216 l-151 0 l0 -216 l151 0 ZM331 788 q-34 -111 -88 -212 l0 -681 l-93 0 l0 534 q-50 -65 -88 -106 l-31 102 q147 174 215 403 l85 -40 Z" /><glyph glyph-name="" unicode="&#x4fe1;" d="M143 424 q-45 -59 -83 -102 l-31 102 q138 174 206 406 l89 -42 q-36 -115 -88 -215 l0 -678 l-93 0 l0 529 ZM306 699 l293 0 q-19 51 -45 99 l91 25 q32 -68 48 -124 l270 0 l0 -89 l-657 0 l0 89 ZM397 549 l481 0 l0 -85 l-481 0 l0 85 ZM397 408 l481 0 l0 -86 l-481 0 l0 86 ZM899 259 l0 -362 l-92 0 l0 52 l-340 0 l0 -52 l-92 0 l0 362 l524 0 ZM467 38 l340 0 l0 133 l-340 0 l0 -133 Z" /><glyph glyph-name="" unicode="&#x5168;" d="M534 821 q188 -194 432 -305 l-47 -85 q-77 37 -140 77 l0 -90 l-231 0 l0 -150 l281 0 l0 -92 l-281 0 l0 -158 l372 0 l0 -93 l-839 0 l0 93 l371 0 l0 158 l-282 0 l0 92 l282 0 l0 150 l-231 0 l0 90 q-64 -39 -144 -79 l-46 83 q261 125 435 309 l68 0 ZM777 509 q-156 96 -277 226 q-112 -123 -277 -226 l554 0 Z" /><glyph glyph-name="" unicode="&#x5173;" d="M322 816 q59 -78 110 -165 l-62 -31 l207 0 q54 85 96 203 l93 -25 q-31 -94 -82 -178 l190 0 l0 -92 l-326 0 l0 -31 q-3 -67 -14 -133 l398 0 l0 -92 l-350 0 q73 -181 375 -286 l-56 -90 q-314 128 -401 341 q-27 -72 -66 -125 q-102 -135 -333 -207 l-52 83 q230 75 313 189 q28 43 48 95 l-342 0 l0 92 l368 0 q13 70 16 133 l0 31 l-327 0 l0 92 l214 0 q-47 83 -104 154 l87 42 Z" /><glyph glyph-name="" unicode="&#x5207;" d="M587 671 l-185 0 l0 92 l533 0 q0 -524 -15 -647 q-18 -198 -161 -198 q-25 0 -122 5 l-24 87 q83 -5 130 -5 q73 0 85 154 q9 78 12 512 l-159 0 l0 -83 q-6 -477 -311 -698 l-79 69 q291 197 296 629 l0 83 ZM449 603 l15 -92 l-214 -42 l0 -283 q74 31 155 78 l24 -85 q-123 -78 -299 -137 l-27 92 q51 21 51 67 l0 249 l-111 -21 l-14 93 l125 24 l0 260 l96 0 l0 -241 l199 38 Z" /><glyph glyph-name="" unicode="&#x5272;" d="M143 458 l142 0 l0 53 l-186 0 l0 59 l-30 0 l0 177 l208 0 q-10 26 -26 61 l93 16 q12 -29 28 -77 l236 0 l0 -176 l-47 0 l0 -60 l-184 0 l0 -53 l143 0 l0 -74 l-143 0 l0 -56 l212 0 l0 -76 l-212 0 l0 -49 l-92 0 l0 49 l-208 0 l0 76 l208 0 l0 56 l-142 0 l0 74 ZM519 587 l0 78 l-360 0 l0 -78 l126 0 l0 46 l92 0 l0 -46 l142 0 ZM654 726 l89 0 l0 -611 l-89 0 l0 611 ZM708 -93 l-19 90 q67 -7 110 -7 q35 0 35 38 l0 790 l93 0 l0 -813 q0 -98 -96 -98 l-123 0 ZM563 186 l0 -290 l-89 0 l0 37 l-268 0 l0 -33 l-90 0 l0 286 l447 0 ZM206 12 l268 0 l0 95 l-268 0 l0 -95 Z" /><glyph glyph-name="" unicode="&#x529f;" d="M185 638 l-136 0 l0 93 l367 0 l0 -93 l-136 0 l0 -449 q84 27 148 53 l0 -95 q-174 -67 -366 -113 l-24 96 q82 15 147 31 l0 477 ZM586 817 l96 0 l0 -179 l251 0 q0 -502 -15 -621 q-20 -112 -173 -112 q-20 0 -95 5 l-23 89 q67 -5 102 -5 q86 0 100 68 q8 63 11 484 l-158 0 l0 -18 q-6 -435 -234 -639 l-78 69 q213 177 216 570 l0 18 l-142 0 l0 92 l142 0 l0 179 Z" /><glyph glyph-name="" unicode="&#x5360;" d="M419 820 l94 0 l0 -154 l417 0 l0 -90 l-417 0 l0 -176 l342 0 l0 -502 l-94 0 l0 60 l-520 0 l0 -61 l-94 0 l0 503 l272 0 l0 420 ZM241 48 l520 0 l0 261 l-520 0 l0 -261 Z" /><glyph glyph-name="" unicode="&#x53d1;" d="M103 499 l79 292 l95 -16 l-52 -185 l148 0 q27 106 46 234 l97 -12 q-17 -113 -44 -222 l458 0 l0 -91 l-482 0 q-3 -11 -31 -94 l400 0 l0 -80 q-39 -124 -149 -222 q113 -63 275 -117 l-49 -90 q-179 65 -305 145 q-118 -82 -291 -150 l-50 90 q149 54 257 119 q-98 78 -146 167 q-108 -221 -272 -354 l-49 88 q207 183 309 498 l-244 0 ZM428 319 q50 -89 156 -164 q95 77 137 164 l-293 0 ZM684 823 q102 -77 174 -158 l-68 -68 q-61 79 -170 163 l64 63 Z" /><glyph glyph-name="" unicode="&#x53f0;" d="M842 321 l0 -425 l-96 0 l0 41 l-492 0 l0 -41 l-96 0 l0 425 l684 0 ZM254 28 l492 0 l0 202 l-492 0 l0 -202 ZM75 504 q114 25 315 320 l99 -34 q-122 -169 -247 -282 q246 9 493 32 q-41 61 -98 134 l86 41 q123 -151 231 -331 l-93 -46 q-38 67 -70 118 q-313 -27 -698 -42 l-18 90 Z" /><glyph glyph-name="" unicode="&#x53f7;" d="M196 790 l608 0 l0 -288 l-608 0 l0 288 ZM708 587 l0 118 l-416 0 l0 -118 l416 0 ZM266 345 l-221 0 l0 91 l909 0 l0 -91 l-593 0 l-29 -96 l486 0 q-12 -254 -49 -300 q-38 -47 -146 -47 q-70 0 -132 8 l-32 86 q86 -8 143 -8 q76 0 94 30 q16 29 25 145 l-502 0 l47 182 Z" /><glyph glyph-name="" unicode="&#x540d;" d="M367 -47 l0 -53 l-95 0 l0 343 q-82 -25 -179 -48 l-50 92 q253 49 418 125 q-63 51 -166 110 l82 51 q103 -63 166 -117 q135 82 202 191 l-346 0 q-103 -94 -257 -168 l-64 82 q253 108 343 262 l104 -12 q-23 -42 -46 -75 l375 0 l0 -84 q-98 -191 -351 -317 l383 0 l0 -435 l-96 0 l0 53 l-423 0 ZM790 45 l0 202 l-423 0 l0 -202 l423 0 Z" /><glyph glyph-name="" unicode="&#x5458;" d="M835 462 l0 -376 l-97 0 l0 290 l-472 0 l0 -306 l-95 0 l0 392 l664 0 ZM221 792 l558 0 l0 -269 l-558 0 l0 269 ZM683 609 l0 95 l-368 0 l0 -95 l368 0 ZM557 314 q-21 -225 -93 -300 q-76 -94 -365 -121 l-37 87 q242 12 320 90 q67 73 79 253 l96 -9 ZM581 98 q196 -55 352 -128 l-52 -79 q-173 86 -350 133 l50 74 Z" /><glyph glyph-name="" unicode="&#x548c;" d="M921 760 l0 -821 l-92 0 l0 73 l-217 0 l0 -85 l-91 0 l0 833 l400 0 ZM612 102 l217 0 l0 569 l-217 0 l0 -569 ZM68 553 l167 0 l0 120 q-60 -9 -139 -16 l-30 85 q227 18 373 73 l45 -79 q-85 -30 -157 -46 l0 -137 l163 0 l0 -89 l-163 0 l0 -40 q84 -73 171 -165 l-56 -82 q-65 93 -115 155 l0 -425 l-92 0 l0 405 q-59 -124 -154 -231 l-41 104 q131 119 195 274 l0 5 l-167 0 l0 89 Z" /><glyph glyph-name="" unicode="&#x552e;" d="M864 197 l0 -304 l-93 0 l0 43 l-506 0 l0 -43 l-94 0 l0 304 l693 0 ZM265 18 l506 0 l0 99 l-506 0 l0 -99 ZM173 530 q-48 -52 -105 -102 l-30 93 q152 140 213 303 l93 -18 q-12 -31 -34 -78 l218 0 q-21 45 -45 84 l98 16 q17 -36 41 -100 l282 0 l0 -78 l-293 0 l0 -56 l249 0 l0 -74 l-249 0 l0 -53 l251 0 l0 -74 l-251 0 l0 -57 l311 0 l0 -79 l-749 0 l0 273 ZM517 336 l0 57 l-254 0 l0 -57 l254 0 ZM517 467 l0 53 l-254 0 l0 -53 l254 0 ZM517 594 l0 56 l-252 0 q-2 -2 -2 -3 l0 -53 l254 0 Z" /><glyph glyph-name="" unicode="&#x5730;" d="M931 662 q0 -331 -17 -405 q-15 -69 -131 -69 l-9 0 l-28 96 q42 -2 56 -2 q26 0 32 33 q5 33 5 223 l-116 -33 l0 -393 l-90 0 l0 367 l-105 -30 l0 -395 q0 -50 48 -50 l245 0 q25 0 37 21 q13 20 19 135 l88 -28 q-12 -159 -41 -188 q-29 -29 -85 -29 l-292 0 q-111 0 -111 120 l0 388 l-62 -18 l0 93 l62 18 l0 202 l92 0 l0 -175 l105 31 l0 246 l90 0 l0 -219 l208 61 ZM375 122 q-153 -68 -315 -112 l-24 96 q55 10 124 29 l0 333 l-110 0 l0 93 l110 0 l0 255 l94 0 l0 -255 l104 0 l0 -93 l-104 0 l0 -302 q53 19 121 50 l0 -94 Z" /><glyph glyph-name="" unicode="&#x5740;" d="M652 819 l95 0 l0 -311 l180 0 l0 -92 l-180 0 l0 -392 l211 0 l0 -93 l-636 0 l0 93 l108 0 l0 583 l96 0 l0 -583 l126 0 l0 795 ZM375 106 q-150 -54 -321 -90 l-26 102 q59 8 127 23 l0 335 l-117 0 l0 93 l117 0 l0 247 l96 0 l0 -247 l115 0 l0 -93 l-115 0 l0 -310 q67 19 124 40 l0 -100 Z" /><glyph glyph-name="" unicode="&#x578b;" d="M89 782 l478 0 l0 -84 l-94 0 l0 -129 l116 0 l0 -88 l-116 0 l0 -212 l-92 0 l0 212 l-112 0 q-18 -150 -110 -224 l-72 63 q72 56 89 161 l-113 0 l0 88 l119 0 l0 129 l-93 0 l0 84 ZM274 698 l0 -129 l107 0 l0 129 l-107 0 ZM633 752 l91 0 l0 -343 l-91 0 l0 343 ZM114 185 l343 0 l0 73 l94 0 l0 -73 l336 0 l0 -87 l-336 0 l0 -93 l391 0 l0 -87 l-884 0 l0 87 l399 0 l0 93 l-343 0 l0 87 ZM681 258 l-21 88 q65 -6 123 -6 q31 0 31 46 l0 421 l91 0 l0 -443 q0 -106 -90 -106 l-134 0 Z" /><glyph glyph-name="" unicode="&#x591a;" d="M571 781 q-28 -30 -40 -42 l267 0 l0 -74 q-163 -289 -601 -325 l-40 86 q128 8 225 34 q-39 47 -88 93 l82 39 q52 -51 95 -102 q139 59 218 165 l-269 0 q-116 -68 -274 -103 l-56 87 q266 48 396 186 l85 -44 ZM470 200 q56 -56 102 -115 q149 67 235 178 l-274 0 q-132 -61 -306 -95 l-57 85 q329 32 481 193 l81 -44 q-26 -27 -58 -53 l255 0 l0 -74 q-215 -351 -799 -366 l-38 91 q227 0 390 51 q-50 64 -96 109 l84 40 Z" /><glyph glyph-name="" unicode="&#x59d3;" d="M254 818 q-6 -48 -25 -181 l151 0 l0 -53 q-9 -238 -81 -413 q63 -61 105 -111 l-63 -74 q-29 36 -85 94 q-59 -107 -149 -189 l-65 80 q90 76 146 178 q-86 81 -131 122 q36 130 62 275 l-72 0 l0 91 l87 0 q15 92 27 189 l93 -8 ZM229 237 q53 135 63 309 l-78 0 q-28 -155 -55 -247 q44 -37 70 -62 ZM515 539 q-24 -123 -75 -201 l-69 62 q73 112 77 341 l85 0 q-1 -45 -5 -111 l110 0 l0 186 l95 0 l0 -186 l194 0 l0 -91 l-194 0 l0 -218 l186 0 l0 -93 l-186 0 l0 -213 l226 0 l0 -92 l-550 0 l0 92 l229 0 l0 213 l-195 0 l0 93 l195 0 l0 218 l-123 0 Z" /><glyph glyph-name="" unicode="&#x2f26;&#x5b50;" d="M60 401 l413 0 l0 128 q122 71 228 164 l-536 0 l0 89 l664 0 l0 -89 q-116 -114 -261 -212 l0 -80 l372 0 l0 -93 l-372 0 l0 -305 q0 -99 -97 -99 l-176 0 l-26 92 q75 -3 163 -3 q41 0 41 40 l0 275 l-413 0 l0 93 Z" /><glyph glyph-name="" unicode="&#x2f2d;&#x5c71;" d="M808 647 l95 0 l0 -729 l-95 0 l0 59 l-617 0 l0 -58 l-95 0 l0 733 l95 0 l0 -584 l261 0 l0 744 l96 0 l0 -744 l260 0 l0 579 Z" /><glyph glyph-name="" unicode="&#x5dde;" d="M210 556 q-17 -148 -70 -295 l-85 29 q52 131 74 288 l81 -22 ZM539 783 l92 0 l0 -245 l61 27 q63 -117 106 -244 l-77 -39 q-40 123 -90 222 l0 -574 l-92 0 l0 853 ZM815 815 l91 0 l0 -919 l-91 0 l0 919 ZM414 556 q61 -114 107 -246 l-77 -39 q-41 127 -95 232 l0 -4 q-3 -413 -188 -604 l-70 62 q164 168 167 542 l0 308 l91 0 l0 -280 l65 29 Z" /><glyph glyph-name="" unicode="&#x2f30;&#x5df1;" d="M954 188 q-15 -160 -42 -211 q-27 -48 -114 -48 l-550 0 q-118 0 -118 106 l0 410 l617 0 l0 237 l-663 0 l0 91 l758 0 l0 -420 l-616 0 l0 -280 q0 -50 64 -52 l492 0 q50 0 62 41 q11 38 17 157 l93 -31 Z" /><glyph glyph-name="" unicode="&#x5e03;" d="M519 554 l92 0 l0 -115 l276 0 l0 -340 q0 -104 -105 -104 l-91 0 l-23 88 l84 -3 q44 0 44 40 l0 231 l-185 0 l0 -454 l-92 0 l0 454 l-187 0 l0 -364 l-91 0 l0 372 q-67 -69 -147 -129 l-61 80 q178 131 283 296 l-249 0 l0 93 l301 0 q30 63 51 126 l96 -12 q-21 -64 -43 -114 l471 0 l0 -93 l-516 0 q-52 -90 -114 -167 l206 0 l0 115 Z" /><glyph glyph-name="" unicode="&#x2f34;&#x5e7f;" d="M541 833 q25 -51 48 -112 l359 0 l0 -92 l-733 0 l0 -211 q-5 -331 -97 -529 l-80 71 q78 165 81 458 l0 303 l365 0 q-25 57 -49 94 l106 18 Z" /><glyph glyph-name="" unicode="&#x5fae;" d="M759 581 l-17 -69 q21 -129 56 -237 q37 136 41 306 l-80 0 ZM761 170 q-36 99 -60 219 q-23 -57 -48 -101 l-52 66 l5 11 l-311 0 l0 84 l318 0 l0 -68 q74 171 101 441 l83 -14 q-11 -90 -20 -138 l177 0 l0 -89 l-35 0 q-6 -247 -74 -424 q52 -110 124 -173 l-54 -81 q-63 63 -111 164 q-53 -98 -132 -169 l-50 80 q86 73 139 192 ZM476 32 q18 10 22 31 l0 157 l-86 0 l0 -45 q-3 -183 -93 -273 l-70 61 q73 73 75 212 l0 131 l257 0 l0 -208 q48 44 74 71 l19 -79 q-77 -83 -159 -136 l-39 78 ZM421 820 l79 0 l0 -221 l49 0 l0 167 l77 0 l0 -247 l-333 0 l0 247 l77 0 l0 -167 l51 0 l0 221 ZM270 781 q-63 -161 -210 -290 l-29 92 q108 103 158 236 l81 -38 ZM274 513 q-18 -50 -47 -102 l0 -516 l-89 0 l0 391 q-32 -36 -75 -76 l-28 91 q108 108 159 250 l80 -38 Z" /><glyph glyph-name="" unicode="&#x2f3c;&#x5fc3;" d="M410 -70 q-117 0 -117 115 l0 566 l95 0 l0 -546 q0 -42 51 -42 l175 0 q29 0 43 29 q16 35 22 200 l90 -30 q-12 -212 -45 -254 q-30 -38 -92 -38 l-222 0 ZM233 493 q-40 -266 -116 -461 l-82 51 q73 197 107 429 l91 -19 ZM814 539 q91 -210 154 -428 l-87 -39 q-73 249 -159 436 l92 31 ZM458 822 q133 -153 204 -265 l-80 -54 q-76 125 -202 270 l78 49 Z" /><glyph glyph-name="" unicode="&#x606f;" d="M184 752 l221 0 q17 36 28 76 l99 -13 q-8 -29 -25 -63 l317 0 l0 -505 l-640 0 l0 505 ZM732 328 l0 65 l-456 0 l0 -65 l456 0 ZM276 469 l456 0 l0 63 l-456 0 l0 -63 ZM276 607 l456 0 l0 64 l-456 0 l0 -64 ZM220 171 q-36 -141 -98 -241 l-80 51 q62 94 88 208 l90 -18 ZM374 -88 q-99 0 -99 95 l0 184 l96 0 l0 -163 q0 -31 30 -31 l209 0 q29 0 39 15 q17 18 21 106 l91 -29 q-12 -126 -44 -154 q-31 -23 -89 -23 l-254 0 ZM505 230 q77 -79 113 -131 l-71 -50 q-43 65 -112 138 l70 43 ZM825 209 q85 -110 137 -205 l-75 -53 q-50 95 -136 212 l74 46 Z" /><glyph glyph-name="" unicode="&#x6210;" d="M755 827 q70 -54 117 -106 l-46 -46 l120 0 l0 -91 l-298 0 q11 -178 36 -275 q5 -21 14 -50 q63 112 105 253 l87 -37 q-61 -196 -152 -328 q16 -34 33 -61 q46 -67 70 -67 q20 0 39 147 l86 -46 q-38 -208 -110 -208 q-66 0 -138 89 q-22 28 -43 66 q-100 -112 -233 -171 l-54 80 q145 65 243 187 q-19 50 -37 117 q-32 119 -43 304 l-322 0 l0 -146 l245 0 q-3 -271 -27 -343 q-24 -62 -102 -64 q-31 0 -83 5 l-29 86 q80 -4 101 -4 q26 1 35 34 q8 34 11 196 l-151 0 l0 -6 q-6 -275 -121 -445 l-72 64 q94 137 98 381 l0 333 l412 0 q-2 47 -2 147 l96 0 q0 -55 4 -147 l154 0 q-44 49 -103 94 l60 58 Z" /><glyph glyph-name="" unicode="&#x6211;" d="M511 266 q-66 -22 -171 -50 l0 -207 q0 -99 -101 -99 l-112 0 l-21 91 q53 -6 100 -6 q38 0 38 38 l0 161 q-101 -22 -185 -35 l-13 95 q104 17 198 36 l0 179 l-198 0 l0 91 l198 0 l0 106 q-56 -11 -154 -26 l-20 90 q212 23 372 88 l33 -89 q-64 -22 -135 -42 l0 -127 l216 0 q-9 117 -9 258 l96 0 q0 -147 9 -258 l302 0 l0 -91 l-294 0 q9 -99 27 -165 q5 -22 14 -52 q66 79 113 177 l82 -43 q-68 -139 -160 -237 q21 -46 35 -68 q45 -68 69 -68 q20 0 39 156 l84 -44 q-38 -214 -110 -214 q-64 0 -135 89 q-30 37 -51 83 q-105 -88 -232 -137 l-53 82 q141 51 246 147 q-17 46 -31 103 q-21 81 -33 191 l-224 0 l0 -157 q90 24 171 51 l0 -97 ZM753 809 q105 -66 181 -135 l-69 -68 q-63 66 -176 142 l64 61 Z" /><glyph glyph-name="" unicode="&#x641c;" d="M467 531 l0 -77 l138 0 l0 361 l89 0 l0 -361 l137 0 l0 77 l-96 0 l0 76 l96 0 l0 88 l-95 0 l0 80 l181 0 l0 -400 l-223 0 l0 -77 l218 0 l0 -80 q-48 -99 -156 -171 q97 -39 209 -62 l-35 -89 q-156 34 -272 95 q-123 -58 -297 -96 l-47 85 q151 28 254 68 q-94 71 -146 165 l-48 0 l0 85 l231 0 l0 77 l-226 0 l0 371 q78 20 151 65 l53 -71 q-57 -28 -116 -49 l0 -85 l96 0 l0 -75 l-96 0 ZM521 213 q55 -70 142 -121 q96 53 146 121 l-288 0 ZM72 -94 l-20 90 q51 -7 83 -7 q31 0 31 38 l0 215 q-79 -28 -101 -35 l-22 90 q54 13 123 37 l0 211 l-103 0 l0 91 l103 0 l0 174 l92 0 l0 -174 l83 0 l0 -91 l-83 0 l0 -174 q43 20 91 45 l0 -93 q-39 -20 -91 -43 l0 -276 q0 -98 -91 -98 l-95 0 Z" /><glyph glyph-name="" unicode="&#x6599;" d="M133 737 q27 -82 53 -207 l-73 -20 q-26 114 -59 202 l79 25 ZM465 738 q-9 -122 -46 -221 l-70 23 q28 88 37 208 l79 -10 ZM51 476 l171 0 l0 340 l95 0 l0 -340 l141 0 l0 -92 l-141 0 l0 -20 q69 -59 145 -138 l-57 -84 q-42 68 -88 135 l0 -377 l-95 0 l0 372 q-62 -128 -148 -226 l-39 99 q123 116 179 239 l-163 0 l0 92 ZM760 815 l93 0 l0 -557 l97 15 l16 -94 l-113 -17 l0 -262 l-93 0 l0 248 l-277 -42 l-13 94 l290 44 l0 571 ZM577 749 q92 -71 161 -144 l-64 -65 q-54 65 -160 148 l63 61 ZM553 514 q95 -75 158 -147 l-64 -65 q-60 74 -158 152 l64 60 Z" /><glyph glyph-name="" unicode="&#x65bd;" d="M55 687 l145 0 q-27 71 -55 122 l97 17 q28 -68 50 -139 l118 0 l0 -92 l-195 0 l0 -117 l177 0 q0 -383 -13 -482 q-15 -91 -134 -91 l-41 4 l-21 85 q30 -5 48 -5 q53 0 63 51 q7 47 10 350 l-90 0 q-9 -332 -112 -489 l-71 62 q92 146 94 472 l0 160 l-70 0 l0 92 ZM555 629 q-51 -108 -112 -187 l-62 74 q88 109 152 308 l89 -20 q-10 -30 -30 -86 l344 0 l0 -89 l-381 0 ZM901 519 q0 -288 -12 -348 q-15 -61 -112 -61 l-5 0 l-24 81 l45 -1 q16 0 19 28 q4 36 4 183 l-76 -27 l0 -327 l-88 0 l0 296 l-75 -27 l0 -262 q0 -67 45 -67 l187 0 q32 0 47 15 q18 18 24 106 l81 -26 q-12 -128 -45 -155 q-31 -23 -92 -23 l-229 0 q-102 0 -102 133 l0 249 l-70 -25 l0 85 l70 25 l0 134 l84 0 l0 -103 l75 27 l0 157 l88 0 l0 -125 l161 58 Z" /><glyph glyph-name="" unicode="&#x66f4;" d="M67 786 l867 0 l0 -89 l-387 0 l0 -69 l306 0 l0 -411 l-320 0 q-16 -86 -51 -142 q204 -80 485 -89 l-24 -92 q-301 14 -522 112 q-108 -84 -340 -111 l-41 87 q193 12 288 70 q-79 44 -147 101 l73 50 q60 -47 140 -89 q28 44 43 103 l-287 0 l0 411 l303 0 l0 69 l-386 0 l0 89 ZM759 300 l0 85 l-212 0 l0 -24 q0 -32 -3 -61 l215 0 ZM450 300 q3 30 3 61 l0 24 l-209 0 l0 -85 l206 0 ZM244 463 l209 0 l0 84 l-209 0 l0 -84 ZM547 547 l0 -84 l212 0 l0 84 l-212 0 Z" /><glyph glyph-name="" unicode="&#x6709;" d="M362 447 l0 -88 l374 0 l0 88 l-374 0 ZM736 276 l-374 0 l0 -86 l374 0 l0 86 ZM736 108 l-374 0 l0 -209 l-89 0 l0 499 q-79 -93 -173 -169 l-61 80 q175 139 274 316 l-247 0 l0 92 l293 0 q18 44 40 109 l97 -11 q-16 -53 -33 -98 l483 0 l0 -92 l-524 0 q-22 -46 -53 -96 l456 0 l0 -541 q0 -82 -96 -85 l-112 0 l-23 86 q62 -5 105 -5 q37 0 37 33 l0 91 Z" /><glyph glyph-name="" unicode="&#x673a;" d="M55 632 l141 0 l0 187 l94 0 l0 -187 l116 0 l0 -91 l-116 0 l0 -42 q64 -61 137 -147 l-56 -84 q-49 87 -81 137 l0 -503 l-94 0 l0 469 q-46 -127 -121 -241 l-41 103 q107 134 157 308 l-136 0 l0 91 ZM348 -40 q62 92 87 193 q20 89 20 252 l0 381 l343 0 l0 -758 q0 -18 14 -18 l31 0 q14 0 21 6 q7 7 10 20 q7 28 7 179 l87 -27 q0 -109 -8 -170 q-6 -55 -29 -78 q-25 -19 -76 -19 l-44 0 q-109 0 -109 97 l0 678 l-153 0 l0 -291 q0 -168 -27 -285 q-25 -118 -96 -230 l-78 70 Z" /><glyph glyph-name="" unicode="&#x6750;" d="M466 539 l0 91 l279 0 l0 190 l94 0 l0 -190 l107 0 l0 -91 l-107 0 l0 -526 q0 -105 -97 -105 l-110 0 l-22 92 q58 -5 99 -5 q36 0 36 42 l0 408 q-103 -253 -308 -426 l-51 86 q223 171 324 434 l-244 0 ZM55 632 l153 0 l0 187 l94 0 l0 -187 l125 0 l0 -91 l-125 0 l0 -48 q69 -62 150 -151 l-55 -83 q-58 84 -95 133 l0 -491 l-94 0 l0 487 q-52 -150 -131 -266 l-43 109 q115 134 168 310 l-147 0 l0 91 Z" /><glyph glyph-name="" unicode="&#x676d;" d="M393 697 l212 0 q-26 63 -57 113 l101 16 q32 -67 55 -129 l209 0 l0 -93 l-520 0 l0 93 ZM354 -42 q66 69 93 145 q23 69 23 197 l0 212 l332 0 l0 -487 q0 -31 22 -31 l19 0 q8 0 18 4 q7 3 10 10 q7 18 7 127 l84 -25 q0 -77 -7 -128 q-6 -40 -28 -57 q-25 -14 -73 -14 l-32 0 q-109 0 -109 104 l0 411 l-154 0 l0 -126 q0 -129 -28 -225 q-29 -94 -107 -181 l-70 64 ZM173 817 l93 0 l0 -180 l103 0 l0 -92 l-103 0 l0 -65 q71 -74 145 -166 l-54 -81 q-60 98 -91 143 l0 -478 l-93 0 l0 444 q-40 -114 -99 -214 l-41 103 q97 140 140 314 l-109 0 l0 92 l109 0 l0 180 Z" /><glyph glyph-name="" unicode="&#x6a21;" d="M412 573 l478 0 l0 -319 l-199 0 q-4 -39 -7 -61 l273 0 l0 -86 l-236 0 q85 -87 242 -140 l-64 -76 q-169 74 -252 181 q-53 -107 -239 -179 l-61 74 q166 56 218 140 l-225 0 l0 86 l258 0 q6 29 9 61 l-195 0 l0 319 ZM805 326 l0 52 l-308 0 l0 -52 l308 0 ZM497 448 l308 0 l0 51 l-308 0 l0 -51 ZM350 742 l140 0 l0 75 l90 0 l0 -75 l132 0 l0 75 l90 0 l0 -75 l147 0 l0 -84 l-147 0 l0 -62 l-90 0 l0 62 l-132 0 l0 -62 l-90 0 l0 62 l-140 0 l0 84 ZM263 -100 l-90 0 l0 463 q-43 -128 -103 -230 l-41 105 q97 134 142 305 l-116 0 l0 87 l118 0 l0 190 l90 0 l0 -190 l90 0 l0 -87 l-90 0 l0 -61 q48 -58 116 -155 l-50 -74 q-40 77 -66 122 l0 -475 Z" /><glyph glyph-name="" unicode="&#x6c5f;" d="M596 675 l-243 0 l0 90 l571 0 l0 -90 l-235 0 l0 -653 l269 0 l0 -91 l-654 0 l0 91 l292 0 l0 653 ZM134 808 q105 -72 179 -143 l-66 -67 q-64 69 -181 145 l68 65 ZM106 570 q110 -77 179 -148 l-66 -66 q-65 71 -179 149 l66 65 ZM299 268 q-72 -192 -159 -360 l-88 39 q92 166 164 353 l83 -32 Z" /><glyph glyph-name="" unicode="&#x6d59;" d="M129 810 q86 -74 143 -146 l-66 -67 q-53 72 -144 148 l67 65 ZM106 571 q84 -73 142 -148 l-66 -66 q-51 71 -143 149 l67 65 ZM250 269 q-52 -195 -111 -362 l-88 39 q65 171 115 355 l84 -32 ZM548 320 q-28 -15 -86 -43 l0 -271 q0 -100 -87 -100 l-81 0 l-20 83 q38 -6 71 -6 q25 0 25 44 l0 210 l-85 -31 l-22 91 q56 14 107 33 l0 227 l-99 0 l0 82 l99 0 l0 178 l92 0 l0 -178 l83 0 l0 -82 l-83 0 l0 -187 q35 17 86 46 l0 -96 ZM942 724 q-122 -44 -267 -53 l0 -170 l282 0 l0 -85 l-86 0 l0 -518 l-90 0 l0 518 l-106 0 l0 -61 q-7 -283 -111 -453 l-64 68 q81 140 87 385 l0 392 q173 3 312 56 l43 -79 Z" /><glyph glyph-name="" unicode="&#x70ad;" d="M452 825 l97 0 l0 -166 l224 0 l0 126 l96 0 l0 -214 l-733 0 l0 214 l95 0 l0 -126 l221 0 l0 166 ZM223 549 l90 0 l-1 -58 l617 0 l0 -90 l-624 0 q-36 -299 -221 -443 l-52 82 q149 110 182 361 l-120 0 l0 90 l128 0 l1 58 ZM540 366 l93 0 l0 -53 q-3 -51 -10 -85 q66 -171 324 -252 l-53 -82 q-219 80 -305 227 q-25 -49 -56 -84 q-89 -95 -291 -149 l-50 79 q200 51 272 129 q68 83 76 217 l0 53 ZM457 299 q-31 -113 -77 -190 l-78 28 q43 74 74 183 l81 -21 ZM876 300 q-27 -104 -71 -188 l-79 28 q41 76 70 181 l80 -21 Z" /><glyph glyph-name="" unicode="&#x2f63;&#x751f;" d="M250 552 q-60 -136 -151 -225 l-62 79 q135 143 183 384 l97 -17 q-15 -69 -33 -129 l186 0 l0 168 l95 0 l0 -168 l321 0 l0 -92 l-321 0 l0 -207 l301 0 l0 -92 l-301 0 l0 -228 l385 0 l0 -94 l-887 0 l0 94 l407 0 l0 228 l-286 0 l0 92 l286 0 l0 207 l-220 0 Z" /><glyph glyph-name="" unicode="&#x7535;" d="M214 387 l0 -125 l222 0 l0 125 l-222 0 ZM436 173 l-222 0 l0 -79 l-95 0 l0 595 l317 0 l0 129 l95 0 l0 -129 l323 0 l0 -516 l-323 0 l0 -101 q0 -71 63 -71 l218 0 q30 0 46 16 q12 16 17 109 l91 -31 q-9 -128 -36 -157 q-29 -26 -102 -26 l-256 0 q-136 0 -136 146 l0 115 ZM531 262 l229 0 l0 125 l-229 0 l0 -125 ZM760 474 l0 125 l-229 0 l0 -125 l229 0 ZM436 599 l-222 0 l0 -125 l222 0 l0 125 Z" /><glyph glyph-name="" unicode="&#x754c;" d="M150 787 l704 0 l0 -414 l-178 0 q97 -101 291 -161 l-41 -84 q-132 51 -222 117 l0 -350 l-96 0 l0 382 l55 0 q-51 44 -89 96 l-148 0 q-42 -54 -94 -95 l76 0 q0 -121 -36 -205 q-43 -107 -204 -179 l-63 76 q132 54 174 134 q30 61 33 158 q-99 -72 -230 -125 l-51 83 q195 62 291 153 l-172 0 l0 414 ZM763 456 l0 86 l-217 0 l0 -86 l217 0 ZM454 456 l0 86 l-213 0 l0 -86 l213 0 ZM241 620 l213 0 l0 83 l-213 0 l0 -83 ZM546 703 l0 -83 l217 0 l0 83 l-217 0 Z" /><glyph glyph-name="" unicode="&#x7684;" d="M413 655 l0 -696 l-91 0 l0 52 l-158 0 l0 -81 l-91 0 l0 725 l95 0 q29 87 40 167 l95 -13 q-14 -79 -44 -154 l154 0 ZM164 99 l158 0 l0 197 l-158 0 l0 -197 ZM164 381 l158 0 l0 184 l-158 0 l0 -184 ZM593 415 q103 -127 152 -215 l-75 -53 q-53 92 -154 220 l77 48 ZM929 654 q0 -518 -15 -638 q-15 -108 -143 -108 q-23 0 -106 5 l-23 87 q88 -4 114 -4 q60 0 69 63 q8 66 11 503 l-251 0 q-44 -93 -98 -165 l-57 75 q100 146 136 351 l94 -12 q-14 -76 -40 -157 l309 0 Z" /><glyph glyph-name="" unicode="&#x7801;" d="M389 476 l0 -527 l-88 0 l0 49 l-86 0 l0 -68 l-88 0 l0 377 q-27 -44 -49 -75 l-47 76 q103 164 139 372 l-110 0 l0 92 l347 0 l0 -92 l-147 0 q-19 -109 -54 -204 l183 0 ZM215 85 l86 0 l0 305 l-86 0 l0 -305 ZM502 637 l93 -6 l-42 -240 l191 0 l45 305 l-342 0 l0 90 l446 0 l-53 -395 l102 0 q0 -374 -43 -432 q-43 -57 -182 -57 q-28 0 -88 4 l-26 92 q70 -8 91 -8 q113 0 134 45 q24 47 24 267 l-404 0 l54 335 ZM425 197 l372 0 l0 -90 l-372 0 l0 90 Z" /><glyph glyph-name="" unicode="&#x7814;" d="M761 688 l-134 0 l0 -255 l134 0 l0 255 ZM761 342 l-135 0 q-15 -304 -176 -447 l-71 63 q143 123 155 384 l-101 0 l0 91 l102 0 l0 255 l-80 0 l0 90 l481 0 l0 -90 l-84 0 l0 -255 l111 0 l0 -91 l-111 0 l0 -443 l-91 0 l0 443 ZM65 682 l0 92 l352 0 l0 -92 l-152 0 q-22 -116 -56 -205 l179 0 l0 -472 l-170 0 l0 -73 l-88 0 l0 384 q-29 -46 -50 -75 l-50 81 q109 163 145 360 l-110 0 ZM218 88 l83 0 l0 305 l-83 0 l0 -305 Z" /><glyph glyph-name="" unicode="&#x7a76;" d="M604 612 q158 -75 286 -180 l-52 -80 q-138 120 -282 189 l48 71 ZM445 550 q-126 -117 -308 -193 l-40 85 q177 66 291 174 l57 -66 ZM515 823 q20 -45 35 -90 l366 0 l0 -213 l-95 0 l0 125 l-642 0 l0 -124 l-95 0 l0 212 l364 0 q-21 47 -38 74 l105 16 ZM382 450 l95 0 l0 -85 l-2 -35 l257 0 l0 -312 q0 -22 25 -22 l66 0 q32 0 38 25 q5 67 5 127 l88 -26 q-10 -127 -20 -159 q-18 -57 -110 -57 l-81 0 q-104 0 -104 96 l0 239 l-177 0 q-24 -105 -79 -178 q-85 -105 -278 -162 l-51 81 q185 57 255 143 q36 51 55 116 l-240 0 l0 89 l256 0 l2 35 l0 85 Z" /><glyph glyph-name="" unicode="&#x2f74;&#x7acb;" d="M80 667 l371 0 q-22 70 -48 133 l110 18 q25 -77 43 -151 l367 0 l0 -92 l-843 0 l0 92 ZM46 42 l491 0 q89 199 154 487 l101 -26 q-61 -263 -145 -461 l310 0 l0 -92 l-911 0 l0 92 ZM312 529 q63 -184 116 -443 l-102 -26 q-45 225 -114 436 l100 33 Z" /><glyph glyph-name="" unicode="&#x2f75;&#x7af9;" d="M196 543 q-46 -84 -101 -152 l-62 74 q108 133 182 364 l95 -21 q-30 -88 -68 -174 l224 0 l0 -91 l-148 0 l0 -647 l-95 0 l0 647 l-27 0 ZM589 543 q-45 -84 -96 -150 l-61 74 q99 130 171 362 l95 -21 q-29 -90 -65 -174 l328 0 l0 -91 l-148 0 l0 -539 q0 -103 -97 -103 l-129 0 l-21 91 q62 -6 117 -6 q35 0 35 42 l0 515 l-129 0 Z" /><glyph glyph-name="" unicode="&#x7bb1;" d="M68 445 l153 0 l0 98 l95 0 l0 -98 l128 0 l0 -92 l-128 0 l0 -23 q69 -62 145 -144 l-54 -80 q-57 88 -91 135 l0 -345 l-95 0 l0 341 q-56 -122 -149 -226 l-41 106 q121 106 177 236 l-140 0 l0 92 ZM897 516 l0 -620 l-92 0 l0 38 l-229 0 l0 -38 l-91 0 l0 620 l412 0 ZM576 18 l229 0 l0 92 l-229 0 l0 -92 ZM576 190 l229 0 l0 81 l-229 0 l0 -81 ZM576 351 l229 0 l0 81 l-229 0 l0 -81 ZM208 667 q-35 -60 -75 -106 l-83 52 q89 96 128 211 l91 -20 q-8 -23 -20 -53 l249 0 l0 -84 l-140 0 q32 -44 54 -86 l-87 -33 q-28 61 -68 119 l-49 0 ZM636 667 q-27 -58 -68 -116 l-80 51 q76 104 110 227 l91 -20 l-19 -58 l284 0 l0 -84 l-168 0 q32 -45 54 -86 l-83 -31 q-27 55 -70 117 l-51 0 Z" /><glyph glyph-name="" unicode="&#x2f76;&#x7c73;" d="M66 458 l386 0 l0 363 l96 0 l0 -363 l386 0 l0 -91 l-315 0 q105 -177 349 -315 l-68 -86 q-246 175 -352 392 l0 -462 l-96 0 l0 462 q-111 -240 -362 -396 l-55 89 q234 126 345 316 l-314 0 l0 91 ZM859 721 q-55 -120 -138 -230 l-85 44 q85 116 135 229 l88 -43 ZM238 746 q69 -101 117 -209 l-85 -38 q-55 122 -123 217 l91 30 Z" /><glyph glyph-name="" unicode="&#x7cfb;" d="M352 -100 l-22 93 q54 -6 102 -6 q32 0 32 33 l0 221 q-117 -7 -308 -16 l-26 83 q44 4 82 17 q113 49 243 145 q-143 -11 -256 -17 l-20 84 q33 3 64 17 q60 30 144 123 q-132 -5 -250 -5 l-28 82 q424 0 725 58 l47 -79 q-155 -34 -376 -49 q-78 -90 -162 -150 q140 8 210 13 q69 57 131 114 l88 -43 q-235 -204 -414 -305 q199 13 363 32 q-44 58 -68 87 l70 44 q124 -144 191 -253 l-76 -53 q-25 44 -62 99 q-100 -12 -217 -21 l0 -251 q0 -97 -94 -97 l-113 0 ZM694 202 q148 -107 250 -216 l-68 -68 q-86 102 -245 222 l63 62 ZM362 135 q-103 -123 -251 -213 l-60 78 q146 85 244 195 l67 -60 Z" /><glyph glyph-name="" unicode="&#x7d22;" d="M123 749 l329 0 l0 71 l96 0 l0 -71 l329 0 l0 -86 l-329 0 l0 -69 l378 0 l0 -195 l-92 0 l0 113 l-354 0 l44 -22 q-89 -68 -169 -112 q102 3 192 8 q53 36 103 73 l76 -51 q-156 -115 -342 -186 q117 4 327 16 q-38 42 -58 62 l69 43 q106 -105 164 -185 l-72 -51 q-29 43 -49 67 q-99 -5 -212 -12 l0 -175 q0 -89 -94 -89 l-91 0 l-19 88 q41 -6 79 -6 q31 0 31 29 l0 148 q-179 -8 -297 -11 l-19 85 q42 -3 81 -3 q102 29 213 90 l-200 -6 l-18 70 q20 4 44 17 q82 47 160 113 l-257 0 l0 -112 l-92 0 l0 194 l378 0 l0 69 l-329 0 l0 86 ZM653 123 q155 -55 283 -135 l-48 -76 q-138 90 -282 141 l47 70 ZM382 62 q-117 -89 -286 -147 l-39 84 q163 48 269 126 l56 -63 Z" /><glyph glyph-name="" unicode="&#x7ea4;" d="M397 22 q-152 -55 -343 -89 l-12 94 q202 33 355 87 l0 -92 ZM291 789 q-68 -178 -143 -294 q38 4 114 16 l27 53 q19 37 29 55 l87 -32 q-124 -231 -207 -338 q82 16 188 49 l0 -85 q-162 -55 -308 -75 l-25 89 q26 12 43 28 q46 46 118 170 l-153 -28 l-27 93 q26 11 44 39 q70 135 122 296 l91 -36 ZM379 417 l242 0 l0 228 q-87 -14 -187 -27 l-20 89 q262 24 461 95 l33 -87 q-84 -28 -193 -52 l0 -246 l243 0 l0 -91 l-243 0 l0 -426 l-94 0 l0 426 l-242 0 l0 91 Z" /><glyph glyph-name="" unicode="&#x7ed2;" d="M357 26 q-131 -57 -298 -93 l-13 94 q177 34 311 92 l0 -93 ZM271 790 q-59 -179 -124 -297 q56 7 88 13 l46 104 l87 -32 q-106 -229 -180 -336 q83 18 169 48 l0 -86 q-142 -49 -279 -68 l-25 89 q26 12 43 28 q39 48 99 168 l-131 -25 l-25 94 q23 10 43 39 q59 138 101 295 l88 -34 ZM376 649 l291 0 q-1 54 -1 169 l84 0 q0 -117 1 -169 l182 0 l0 -90 l-181 0 q3 -155 13 -278 q48 100 83 211 l75 -39 q-59 -185 -139 -312 l0 -1 q27 -115 64 -126 q22 5 37 137 l73 -51 q-27 -186 -105 -186 q-45 0 -84 51 q-29 39 -47 91 q-77 -92 -165 -145 l-50 78 q104 62 187 175 q-20 111 -26 395 l-292 0 l0 90 ZM377 368 l91 0 l0 153 l84 0 l0 -153 l90 0 l0 -82 l-91 0 q-13 -247 -131 -365 l-69 60 q104 98 116 305 l-90 0 l0 82 ZM839 827 q55 -68 88 -123 l-67 -47 q-35 64 -86 129 l65 41 Z" /><glyph glyph-name="" unicode="&#x7ed9;" d="M406 21 q-154 -55 -341 -89 l-12 92 q203 33 353 87 l0 -90 ZM299 789 q-73 -185 -146 -294 q51 6 102 15 q35 70 53 108 l85 -32 q-120 -234 -201 -342 q92 20 195 56 l0 -85 q-159 -55 -306 -76 l-25 86 q25 10 43 27 q46 50 111 172 q-52 -9 -146 -22 l-23 87 q20 9 39 35 q75 134 130 299 l89 -34 ZM887 322 l0 -413 l-93 0 l0 47 l-250 0 l0 -47 l-91 0 l0 413 l434 0 ZM544 47 l250 0 l0 185 l-250 0 l0 -185 ZM714 816 q85 -176 257 -294 l-55 -81 q-52 39 -85 71 l0 -87 l-328 0 l0 83 q-34 -34 -81 -71 l-55 79 q158 116 259 300 l88 0 ZM829 514 q-95 91 -159 215 q-72 -124 -161 -215 l320 0 Z" /><glyph glyph-name="" unicode="&#x7edc;" d="M403 21 q-146 -56 -334 -90 l-11 93 q202 34 345 86 l0 -89 ZM300 790 q-70 -181 -143 -293 q68 8 102 14 l52 105 l82 -30 q-3 -4 -7 -14 q122 101 166 248 l90 -17 q-7 -22 -23 -66 l262 0 l0 -69 q-50 -118 -147 -209 q102 -69 237 -108 l-53 -78 q-148 45 -254 128 q-105 -76 -249 -132 l-58 77 q140 50 238 117 q-46 46 -82 104 q-37 -42 -79 -76 l-53 71 q-112 -218 -186 -317 q89 20 189 56 l0 -85 q-157 -56 -300 -76 l-25 85 q26 11 42 27 q46 52 113 174 l-144 -22 l-24 86 q21 9 40 35 q70 132 125 299 l89 -34 ZM564 635 q43 -69 99 -119 q72 63 115 137 l-202 0 l-12 -18 ZM881 282 l0 -377 l-91 0 l0 37 l-243 0 l0 -37 l-91 0 l0 377 l425 0 ZM547 28 l243 0 l0 168 l-243 0 l0 -168 Z" /><glyph glyph-name="" unicode="&#x7ef4;" d="M394 20 q-147 -55 -336 -90 l-12 95 q197 31 348 86 l0 -91 ZM290 789 q-68 -183 -134 -291 q64 8 96 14 l53 116 l83 -31 q-117 -245 -191 -350 q84 24 175 63 l0 -87 q-149 -61 -286 -84 l-25 86 q25 10 43 27 q46 56 106 173 l-141 -22 l-24 87 q21 9 40 35 q65 135 114 300 l91 -36 ZM548 366 l0 -112 l156 0 l0 112 l-156 0 ZM548 167 l0 -128 l156 0 l0 128 l-156 0 ZM548 -49 l0 -52 l-91 0 l0 559 q-40 -64 -77 -111 l-29 96 q112 171 159 374 l90 -18 q-18 -72 -45 -142 l155 0 q-24 74 -54 141 l92 25 q36 -101 52 -166 l144 0 l0 -90 l-149 0 l0 -114 l132 0 l0 -87 l-132 0 l0 -112 l132 0 l0 -87 l-132 0 l0 -128 l169 0 l0 -88 l-416 0 ZM704 567 l-156 0 l0 -114 l156 0 l0 114 Z" /><glyph glyph-name="" unicode="&#x2f79;&#x7f51;" d="M461 128 q-42 68 -79 120 q-51 -135 -120 -234 l-61 74 q69 105 118 249 q-58 80 -132 167 l58 57 q42 -44 104 -123 q24 100 38 201 l87 -15 q-23 -155 -58 -275 q51 -72 108 -159 l-63 -62 ZM749 80 q-38 68 -86 144 q-56 -136 -130 -234 l-60 73 q77 109 130 253 q-63 93 -129 177 l59 56 q50 -56 102 -130 q27 101 45 217 l88 -15 q-27 -163 -69 -297 q58 -89 114 -181 l-64 -63 ZM708 -97 l-25 92 l94 -4 q37 0 37 35 l0 668 l-628 0 l0 -797 l-94 0 l0 888 l816 0 l0 -780 q0 -102 -100 -102 l-100 0 Z" /><glyph glyph-name="" unicode="&#x2f7a;&#x7f8a;" d="M116 651 l214 0 q-40 69 -89 132 l82 39 q53 -70 95 -145 l-52 -26 l218 0 q44 76 82 172 l92 -32 q-32 -75 -73 -140 l201 0 l0 -91 l-338 0 l0 -124 l288 0 l0 -91 l-288 0 l0 -128 l397 0 l0 -92 l-397 0 l0 -231 l-96 0 l0 231 l-401 0 l0 92 l401 0 l0 128 l-288 0 l0 91 l288 0 l0 124 l-336 0 l0 91 Z" /><glyph glyph-name="" unicode="&#x8054;" d="M457 610 l248 0 q54 97 93 209 l88 -33 q-42 -101 -86 -176 l133 0 l0 -90 l-197 0 l0 -18 q0 -69 -6 -132 l220 0 l0 -91 l-194 0 q39 -153 210 -312 l-65 -71 q-153 159 -201 313 q-61 -211 -221 -317 l-57 76 q155 95 203 311 l-183 0 l0 91 l197 0 q5 54 6 111 l0 39 l-188 0 l0 90 ZM569 815 q59 -90 88 -154 l-70 -49 q-30 63 -91 157 l73 46 ZM43 786 l404 0 l0 -88 l-57 0 l0 -523 l59 19 l0 -92 l-59 -18 l0 -189 l-91 0 l0 165 q-99 -26 -237 -53 l-23 90 l57 9 l0 592 l-53 0 l0 88 ZM187 123 q51 11 112 26 l0 129 l-112 0 l0 -155 ZM187 364 l112 0 l0 122 l-112 0 l0 -122 ZM187 572 l112 0 l0 126 l-112 0 l0 -126 Z" /><glyph glyph-name="" unicode="&#x805a;" d="M460 237 q-91 -8 -170 -11 l62 -38 q-47 -44 -98 -72 q-54 -29 -141 -62 l-45 73 q65 16 124 45 q47 25 82 53 q-74 -2 -111 -2 l-27 80 q392 0 660 87 l42 -71 q-87 -33 -183 -53 q18 -63 58 -114 q81 50 133 102 l51 -66 q-51 -46 -132 -93 q71 -65 181 -111 l-48 -80 q-258 129 -315 349 l-35 -5 l0 -349 l-88 0 l0 338 ZM75 789 l460 0 l0 -74 l-67 0 l0 -241 l63 9 l0 -70 l-63 -10 l0 -57 l-82 0 l0 45 q-161 -21 -322 -35 l-9 77 l90 7 l0 275 l-70 0 l0 74 ZM226 447 q100 9 160 16 l0 36 l-160 0 l0 -52 ZM226 563 l160 0 l0 43 l-160 0 l0 -43 ZM226 670 l160 0 l0 45 l-160 0 l0 -45 ZM606 655 q75 -45 138 -90 q43 56 70 113 l-257 0 l0 80 l354 0 l0 -69 q-40 -100 -98 -175 q66 -51 113 -93 l-62 -61 q-52 50 -107 93 q-78 -69 -175 -102 l-37 76 q81 26 142 79 q-68 49 -139 93 l58 56 ZM431 76 q-61 -54 -126 -91 q-60 -34 -181 -77 l-46 74 q89 21 163 60 q68 36 119 77 l71 -43 Z" /><glyph glyph-name="" unicode="&#x80fd;" d="M191 234 l0 -73 l208 0 l0 73 l-208 0 ZM399 312 l0 77 l-208 0 l0 -77 l208 0 ZM191 82 l0 -187 l-92 0 l0 576 l392 0 l0 -465 q0 -104 -97 -104 l-79 0 l-23 89 l71 -4 q36 0 36 39 l0 56 l-208 0 ZM668 378 q-105 0 -105 115 l0 324 l94 0 l0 -119 q163 25 253 50 l31 -84 q-128 -30 -284 -53 l0 -98 q0 -50 37 -50 l119 0 q24 0 34 15 q13 20 16 101 l89 -29 q-12 -124 -40 -149 q-28 -23 -81 -23 l-163 0 ZM658 25 q0 -28 35 -28 l120 0 q23 0 34 14 q13 19 17 102 l87 -27 q-12 -126 -40 -151 q-26 -23 -80 -23 l-164 0 q-103 0 -103 93 l0 337 l94 0 l0 -110 q136 14 252 49 l31 -85 q-126 -34 -283 -50 l0 -121 ZM418 750 q86 -115 136 -206 l-78 -56 q-17 34 -33 62 q-156 -24 -375 -36 l-26 79 q25 9 43 24 q93 103 140 204 l91 -27 q-62 -121 -141 -197 q91 5 227 22 q-22 35 -57 85 l73 46 Z" /><glyph glyph-name="" unicode="&#x2f83;&#x81ea;" d="M844 708 l0 -810 l-96 0 l0 56 l-496 0 l0 -56 l-96 0 l0 810 l216 0 q32 59 46 115 l97 -14 q-13 -49 -43 -101 l372 0 ZM252 44 l496 0 l0 140 l-496 0 l0 -140 ZM252 272 l496 0 l0 131 l-496 0 l0 -131 ZM252 491 l496 0 l0 126 l-496 0 l0 -126 Z" /><glyph glyph-name="" unicode="&#x8bbe;" d="M168 807 q96 -74 163 -147 l-65 -66 q-58 69 -164 150 l66 63 ZM41 520 l224 0 l0 -423 q42 35 100 90 l26 -100 q-99 -92 -207 -161 l-36 86 q25 22 25 53 l0 364 l-132 0 l0 91 ZM398 401 l485 0 l0 -87 q-43 -133 -144 -229 q98 -64 232 -112 l-51 -82 q-145 58 -251 136 q-116 -83 -289 -135 l-53 80 q160 47 267 118 q-103 100 -139 219 l-57 0 l0 92 ZM544 309 q34 -91 118 -166 q82 75 125 166 l-243 0 ZM468 787 l354 0 l0 -210 q0 -34 37 -34 l88 0 l0 -87 l-113 0 q-106 0 -106 100 l0 142 l-166 0 l0 -30 q0 -156 -158 -242 l-63 73 q127 57 127 159 l0 129 Z" /><glyph glyph-name="" unicode="&#x8bdd;" d="M357 536 l265 0 l0 136 q-102 -9 -218 -9 l-28 85 q303 0 513 65 l46 -79 q-96 -33 -217 -51 l0 -147 l250 0 l0 -92 l-250 0 l0 -139 l188 0 l0 -405 l-94 0 l0 44 l-282 0 l0 -44 l-94 0 l0 405 l186 0 l0 139 l-265 0 l0 92 ZM530 33 l282 0 l0 185 l-282 0 l0 -185 ZM173 812 q99 -75 165 -148 l-65 -66 q-62 73 -166 149 l66 65 ZM38 522 l231 0 l0 -425 q50 43 96 88 l25 -100 q-96 -90 -201 -158 l-36 85 q25 22 25 51 l0 368 l-140 0 l0 91 Z" /><glyph glyph-name="" unicode="&#x8bf7;" d="M603 820 l91 0 l0 -58 l240 0 l0 -77 l-240 0 l0 -49 l205 0 l0 -75 l-205 0 l0 -50 l265 0 l0 -79 l-618 0 l0 79 l262 0 l0 50 l-192 0 l0 75 l192 0 l0 49 l-234 0 l0 77 l234 0 l0 58 ZM502 180 l0 -56 l297 0 l0 56 l-297 0 ZM799 252 l0 57 l-297 0 l0 -57 l297 0 ZM502 52 l0 -155 l-90 0 l0 489 l478 0 l0 -390 q0 -93 -95 -93 l-83 0 l-22 84 l78 -5 q31 0 31 33 l0 37 l-297 0 ZM174 812 q99 -76 163 -147 l-65 -66 q-61 72 -165 148 l67 65 ZM38 522 l227 0 l0 -418 q25 24 80 81 l25 -100 q-86 -89 -185 -159 l-36 86 q25 22 25 53 l0 366 l-136 0 l0 91 Z" /><glyph glyph-name="" unicode="&#x8d85;" d="M512 366 l394 0 l0 -322 l-394 0 l0 322 ZM820 126 l0 157 l-223 0 l0 -157 l223 0 ZM80 692 l145 0 l0 129 l91 0 l0 -129 l143 0 l0 -84 l-143 0 l0 -128 l137 0 l0 -86 l-116 0 l0 -121 l121 0 l0 -86 l-121 0 l0 -154 q6 -1 11 -4 q87 -30 405 -30 q130 0 203 5 l-16 -94 l-166 0 q-382 0 -482 43 q-74 34 -133 114 q-18 -84 -50 -170 l-69 61 q61 174 68 382 l81 -10 q-3 -88 -11 -148 q33 -57 70 -91 l0 303 l-177 0 l0 86 l154 0 l0 128 l-145 0 l0 84 ZM486 691 l0 88 l435 0 q-1 -266 -29 -319 q-29 -53 -97 -53 q-26 0 -76 5 l-23 83 q17 -2 44 -4 l35 -3 q35 1 44 35 q10 33 11 168 l-128 0 q-20 -101 -51 -161 q-41 -73 -124 -133 l-62 78 q70 46 106 101 q29 48 43 115 l-128 0 Z" /><glyph glyph-name="" unicode="&#x8fc7;" d="M131 810 q101 -78 171 -156 l-69 -69 q-64 80 -167 163 l65 62 ZM731 -86 q-52 0 -186 2 q-101 1 -166 17 q-62 18 -110 70 q-21 25 -40 25 q-32 0 -110 -139 l-70 65 q76 124 137 156 l0 282 l-136 0 l0 90 l227 0 l0 -379 q8 -5 16 -15 q36 -39 76 -59 q47 -21 139 -24 q118 -2 211 -2 l138 1 q71 3 109 6 l-23 -96 l-212 0 ZM564 48 l-21 92 q65 -6 123 -6 q38 0 38 32 l0 404 l-357 0 l0 92 l357 0 l0 154 l96 0 l0 -154 l134 0 l0 -92 l-134 0 l0 -427 q0 -95 -101 -95 l-135 0 ZM472 497 q86 -109 133 -190 l-80 -56 q-46 87 -129 197 l76 49 Z" /><glyph glyph-name="" unicode="&#x9001;" d="M136 810 q102 -79 170 -156 l-69 -68 q-56 71 -167 161 l66 63 ZM710 -86 q-51 0 -179 2 q-95 1 -160 17 q-59 18 -105 70 q-21 25 -38 25 q-31 0 -108 -135 l-70 65 q75 122 135 152 l0 283 l-134 0 l0 88 l223 0 l0 -378 q8 -6 15 -15 q35 -40 72 -60 q47 -22 133 -25 q114 -2 202 -2 q49 0 149 2 q66 1 116 5 l-23 -94 l-228 0 ZM353 434 l235 0 q8 52 10 126 l-211 0 l0 88 l118 0 q-39 72 -84 129 l85 41 q48 -69 86 -142 l-56 -28 l152 0 q43 86 75 179 l90 -31 q-31 -81 -69 -148 l114 0 l0 -88 l-207 0 q-1 -65 -8 -126 l249 0 l0 -90 l-267 0 q-45 -175 -261 -292 l-60 76 q172 84 221 216 l-212 0 l0 90 ZM715 297 q117 -79 217 -176 l-66 -72 q-100 108 -207 185 l56 63 Z" /><glyph glyph-name="" unicode="&#x904d;" d="M129 810 q98 -81 163 -158 l-66 -66 q-56 74 -161 162 l64 62 ZM709 -87 q-51 0 -179 2 q-100 2 -159 16 q-59 18 -105 68 q-21 25 -38 25 q-32 0 -108 -131 l-70 65 q73 115 134 147 l0 288 l-133 0 l0 88 l224 0 l0 -384 l14 -13 q35 -39 72 -60 q45 -21 133 -24 q112 -2 202 -2 q47 0 149 2 q85 2 116 4 l-22 -91 l-230 0 ZM807 41 l-21 75 l38 -3 q17 0 17 17 l0 72 l-58 0 l0 -147 l-72 0 l0 147 l-55 0 l0 -147 l-72 0 l0 147 l-59 0 l0 -161 l-79 0 l0 333 q-23 -168 -91 -296 l-66 59 q80 152 82 394 l0 204 l232 0 q-14 38 -35 75 l99 16 q11 -29 29 -91 l226 0 l0 -235 l-466 0 l-3 -59 l467 0 l0 -328 q0 -72 -70 -72 l-43 0 ZM525 276 l59 0 l0 87 l-59 0 l0 -87 ZM656 363 l0 -87 l55 0 l0 87 l-55 0 ZM783 363 l0 -87 l58 0 l0 87 l-58 0 ZM838 655 l-381 0 l0 -78 l381 0 l0 78 Z" /><glyph glyph-name="" unicode="&#x90ae;" d="M522 685 l0 -746 l-89 0 l0 59 l-273 0 l0 -59 l-89 0 l0 746 l179 0 l0 139 l93 0 l0 -139 l179 0 ZM160 83 l90 0 l0 224 l-90 0 l0 -224 ZM343 83 l90 0 l0 224 l-90 0 l0 -224 ZM160 391 l90 0 l0 208 l-90 0 l0 -208 ZM343 599 l0 -208 l90 0 l0 208 l-90 0 ZM594 774 l336 0 l0 -69 q-46 -159 -97 -285 q104 -149 106 -244 q0 -86 -38 -119 q-40 -35 -160 -35 l-27 96 q60 -7 86 -7 q32 3 42 15 q8 12 9 50 q-2 93 -112 244 q48 111 93 269 l-148 0 l0 -793 l-90 0 l0 878 Z" /><glyph glyph-name="" unicode="&#x916f;" d="M597 575 q0 -35 39 -35 l177 0 q26 0 41 15 q14 15 20 98 l87 -28 q-13 -123 -44 -150 q-28 -22 -87 -22 l-223 0 q-101 0 -101 103 l0 261 l91 0 l0 -114 q145 37 271 97 l54 -74 q-167 -69 -325 -106 l0 -45 ZM55 788 l411 0 l0 -88 l-106 0 l0 -101 l93 0 l0 -698 l-79 0 l0 52 l-224 0 l0 -53 l-81 0 l0 699 l91 0 l0 101 l-105 0 l0 88 ZM150 35 l224 0 l0 84 l-224 0 l0 -84 ZM150 198 l224 0 l0 75 l-39 0 q-51 0 -51 68 l0 180 l-46 0 l0 -57 q-2 -162 -49 -235 l-39 34 l0 -65 ZM333 521 l0 -162 q0 -19 17 -19 l24 0 l0 181 l-41 0 ZM283 599 l0 101 l-46 0 l0 -101 l46 0 ZM150 286 q38 63 39 178 l0 57 l-39 0 l0 -235 ZM927 380 l0 -479 l-91 0 l0 44 l-239 0 l0 -44 l-91 0 l0 479 l421 0 ZM597 29 l239 0 l0 93 l-239 0 l0 -93 ZM597 206 l239 0 l0 91 l-239 0 l0 -91 Z" /><glyph glyph-name="" unicode="&#x9500;" d="M644 817 l93 0 l0 -269 l186 0 l0 -531 q0 -114 -99 -114 l-97 0 l-25 91 l91 -5 q35 0 35 49 l0 77 l-276 0 l0 -214 l-95 0 l0 647 l187 0 l0 269 ZM552 286 l0 -91 l276 0 l0 91 l-276 0 ZM828 367 l0 91 l-276 0 l0 -91 l276 0 ZM511 779 q52 -86 88 -164 l-77 -39 q-42 92 -91 164 l80 39 ZM949 752 q-35 -87 -94 -176 l-77 40 q58 88 92 173 l79 -37 ZM254 799 l-24 -84 l171 0 l0 -90 l-203 0 q-21 -53 -52 -113 l238 0 l0 -85 l-96 0 l0 -103 l130 0 l0 -88 l-130 0 l0 -207 q63 24 127 62 l16 -84 q-99 -53 -232 -88 l-39 81 q36 14 36 38 l0 198 l-130 0 l0 88 l130 0 l0 103 l-53 0 l0 78 l-35 -61 l-77 49 q91 147 131 325 l92 -19 Z" /><glyph glyph-name="" unicode="&#x95ee;" d="M685 -97 l-24 89 l107 -2 q52 0 52 56 l0 631 l-378 0 l0 92 l475 0 l0 -748 q0 -118 -130 -118 l-102 0 ZM83 654 l97 0 l0 -758 l-97 0 l0 758 ZM307 518 l382 0 l0 -398 l-382 0 l0 398 ZM594 211 l0 216 l-192 0 l0 -216 l192 0 ZM256 830 q65 -78 121 -179 l-85 -44 q-57 105 -124 184 l88 39 Z" /><glyph glyph-name="" unicode="&#x96c7;" d="M305 202 q-28 -36 -57 -66 l-41 50 q-29 -156 -100 -288 l-68 60 q100 186 102 479 l0 311 l346 0 q-15 36 -33 66 l98 16 q6 -16 28 -82 l324 0 l0 -258 l-673 0 l0 -53 q0 -116 -18 -220 q83 98 145 260 l88 -19 l-24 -57 l172 0 q-16 35 -34 65 l93 16 q15 -32 31 -81 l231 0 l0 -77 l-227 0 l0 -55 l192 0 l0 -73 l-192 0 l0 -56 l192 0 l0 -74 l-192 0 l0 -57 l247 0 l0 -77 l-542 0 l0 -32 l-88 0 l0 302 ZM393 9 l205 0 l0 57 l-205 0 l0 -57 ZM598 140 l0 56 l-205 0 l0 -56 l205 0 ZM598 269 l0 55 l-205 0 l0 -55 l205 0 ZM814 663 l-583 0 l0 -89 l583 0 l0 89 Z" /><glyph glyph-name="" unicode="&#x9898;" d="M720 1 q162 0 241 6 l-16 -94 l-203 0 q-358 0 -449 38 q-71 29 -127 104 q-25 -86 -69 -160 l-68 61 q76 133 83 296 l84 -11 q-3 -55 -10 -95 q29 -42 68 -74 l0 214 l-191 0 l0 86 l428 0 l0 -86 l-154 0 l0 -86 l129 0 l0 -84 l-129 0 l0 -89 l4 -1 q84 -25 379 -25 ZM102 787 l355 0 l0 -363 l-355 0 l0 363 ZM365 502 l0 67 l-171 0 l0 -67 l171 0 ZM194 641 l171 0 l0 68 l-171 0 l0 -68 ZM499 787 l438 0 l0 -86 l-173 0 q-3 -25 -11 -63 l161 0 l0 -411 l-88 0 l0 330 l-216 0 l0 -330 l-84 0 l0 411 l143 0 q6 32 9 63 l-179 0 l0 86 ZM799 231 q87 -65 151 -137 l-66 -66 q-57 70 -149 143 l64 60 ZM674 519 l88 0 l0 -144 q-6 -141 -57 -225 q-53 -79 -168 -121 l-51 81 q108 39 147 99 q38 64 41 166 l0 144 Z" /></font>
</defs>
</svg>
